<?xml version="1.0" encoding="UTF-8"?>
<svg width="552px" height="140px" viewBox="0 0 552 140" version="1.1" xmlns="http://www.w3.org/2000/svg" xmlns:xlink="http://www.w3.org/1999/xlink">
    <title>编组</title>
    <g id="页面-1" stroke="none" stroke-width="1" fill="none" fill-rule="evenodd">
        <g id="画板" transform="translate(-74.000000, -115.000000)">
            <g id="编组" transform="translate(74.000000, 115.000000)">
                <g id="技术走进生活，生活融入技术" transform="translate(176.222000, 115.550000)" fill="#445665" fill-rule="nonzero">
                    <path d="M10.764,11.726 L9.23,11.856 L9.23,9.62 C10.114,9.70666667 11.9426667,9.776 14.716,9.828 L14.716,5.954 C12.0986667,5.98866667 10.192,6.058 8.996,6.162 L8.996,3.848 C10.556,3.952 12.4626667,4.02133333 14.716,4.056 C14.6813333,2.444 14.5946667,1.23066667 14.456,0.416 C15.3053333,0.554666667 16.1806667,0.624 17.082,0.624 C17.3766667,0.624 17.524,0.667333333 17.524,0.754 C17.524,0.840666667 17.42,0.944666667 17.212,1.066 C17.004,1.18733333 16.9,1.49066667 16.9,1.976 L16.9,4.056 C19.3093333,4.056 21.294,3.98666667 22.854,3.848 L22.854,6.162 C21.5366667,6.02333333 19.552,5.954 16.9,5.954 L16.9,9.828 C18.2866667,9.81066667 19.8293333,9.71533333 21.528,9.542 C20.5226667,13.2513333 18.9626667,16.25 16.848,18.538 C18.72,19.8033333 21.0253333,20.644 23.764,21.06 C23.1746667,21.9093333 22.724,22.828 22.412,23.816 C19.9853333,23.1746667 17.628,21.9093333 15.34,20.02 C13.624,21.4066667 11.6393333,22.7326667 9.386,23.998 C8.95266667,23.166 8.28533333,22.5506667 7.384,22.152 C10.036,21.3893333 12.1853333,20.1846667 13.832,18.538 C12.5493333,16.8913333 11.5266667,14.6206667 10.764,11.726 Z M12.922,11.674 C13.3553333,13.6153333 14.17,15.4266667 15.366,17.108 C17.2206667,14.9413333 18.2866667,13.13 18.564,11.674 L12.922,11.674 Z M3.796,12.766 L3.796,7.722 C2.25333333,7.73933333 1.05733333,7.826 0.208,7.982 L0.208,5.616 C0.988,5.75466667 2.184,5.824 3.796,5.824 C3.796,3.016 3.70933333,1.222 3.536,0.442 C4.264,0.546 4.90533333,0.598 5.46,0.598 L6.214,0.572 C6.56066667,0.572 6.734,0.641333333 6.734,0.78 C6.734,0.918666667 6.59533333,1.09633333 6.318,1.313 C6.04066667,1.52966667 5.902,1.846 5.902,2.262 L5.902,5.798 C6.82066667,5.78066667 7.57466667,5.72 8.164,5.616 L8.164,7.956 C7.436,7.83466667 6.682,7.76533333 5.902,7.748 L5.902,12.142 C7.06333333,11.7606667 7.956,11.4573333 8.58,11.232 C8.56266667,11.4573333 8.554,11.7476667 8.554,12.103 C8.554,12.4583333 8.632,12.8613333 8.788,13.312 C7.8,13.5546667 6.838,13.8233333 5.902,14.118 L5.902,21.268 C5.902,21.8226667 5.81533333,22.2343333 5.642,22.503 C5.46866667,22.7716667 5.10033333,22.9926667 4.537,23.166 C3.97366667,23.3393333 3.016,23.5473333 1.664,23.79 C1.42133333,22.8366667 0.996666667,21.9266667 0.39,21.06 C0.979333333,21.1293333 1.49066667,21.164 1.924,21.164 C3.172,21.164 3.796,20.8866667 3.796,20.332 L3.796,14.872 C2.66933333,15.3226667 1.586,15.808 0.546,16.328 C0.407333333,15.2533333 0.225333333,14.352 2.84217094e-14,13.624 C1.21333333,13.3813333 2.47866667,13.0953333 3.796,12.766 Z" id="形状"></path>
                    <path d="M38.06,8.84 L38.008,8.84 C36.9853333,11.648 35.8673333,13.9793333 34.654,15.834 C33.4406667,17.6886667 31.82,19.4826667 29.792,21.216 C29.2026667,20.6093333 28.44,20.0286667 27.504,19.474 C31.092,17.3593333 34.004,13.8146667 36.24,8.84 C33.6746667,8.84 31.092,8.92666667 28.492,9.1 L28.492,6.708 C30.6586667,6.84666667 33.848,6.93333333 38.06,6.968 C38.06,3.44933333 37.9473333,1.196 37.722,0.208 C38.398,0.294666667 39.0393333,0.338 39.646,0.338 L40.79,0.286 C41.102,0.286 41.258,0.346666667 41.258,0.468 C41.258,0.589333333 41.1626667,0.710666667 40.972,0.832 C40.7813333,0.953333333 40.621,1.144 40.491,1.404 C40.361,1.664 40.296,1.90666667 40.296,2.132 L40.296,6.968 C44.352,6.95066667 47.5413333,6.864 49.864,6.708 L49.864,9.1 C47.524,8.96133333 44.9066667,8.87466667 42.012,8.84 C43.0866667,11.7346667 44.3,13.858 45.652,15.21 C47.004,16.562 48.798,17.4633333 51.034,17.914 C50.0286667,18.902 49.318,19.8293333 48.902,20.696 C46.5446667,19.3613333 44.7506667,17.836 43.52,16.12 C42.2893333,14.404 41.2926667,11.9773333 40.53,8.84 L40.296,8.84 L40.296,19.448 C40.296,21.2506667 40.3653333,22.6806667 40.504,23.738 L37.8,23.738 C37.9733333,22.386 38.06,20.956 38.06,19.448 L38.06,8.84 Z M47.628,4.134 L45.574,5.59 C45.0366667,4.51533333 44.2566667,3.51 43.234,2.574 L45.106,1.222 C45.886,2.054 46.7266667,3.02466667 47.628,4.134 Z" id="形状"></path>
                    <path d="M68.034,14.248 C71.57,14.248 74.0573333,14.1613333 75.496,13.988 L75.496,16.302 C74.1786667,16.1633333 71.6913333,16.094 68.034,16.094 L68.034,20.592 C68.7793333,20.6786667 69.8236667,20.722 71.167,20.722 C72.5103333,20.722 74.6553333,20.5486667 77.602,20.202 C77.3073333,20.9126667 77.0993333,21.8053333 76.978,22.88 C75.7646667,22.9146667 74.6466667,22.932 73.624,22.932 C70.5386667,22.932 68.229,22.7846667 66.695,22.49 C65.161,22.1953333 63.9216667,21.7013333 62.977,21.008 C62.0323333,20.3146667 61.2306667,19.3526667 60.572,18.122 C59.532,20.2713333 58.518,21.9786667 57.53,23.244 C56.7673333,22.6546667 55.996,22.2646667 55.216,22.074 C56.1693333,21.3113333 57.0923333,20.0893333 57.985,18.408 C58.8776667,16.7266667 59.5666667,14.898 60.052,12.922 C61.1093333,13.39 61.9413333,13.6586667 62.548,13.728 C62.7386667,13.7626667 62.834,13.8103333 62.834,13.871 C62.834,13.9316667 62.7733333,14.0053333 62.652,14.092 C62.4266667,14.2133333 62.002,14.976 61.378,16.38 C62.522,18.3213333 64.0213333,19.578 65.876,20.15 L65.876,10.868 C61.456,10.868 58.0673333,10.946 55.71,11.102 L55.71,8.736 C58.0846667,8.892 61.4473333,8.97 65.798,8.97 L65.798,5.33 C63.0073333,5.34733333 60.65,5.42533333 58.726,5.564 L58.726,3.198 C60.65,3.33666667 63.0073333,3.41466667 65.798,3.432 C65.798,1.78533333 65.7286667,0.641333333 65.59,0 C66.318,0.0866666667 66.942,0.13 67.462,0.13 L68.242,0.104 C68.502,0.104 68.632,0.143 68.632,0.221 C68.632,0.299 68.5366667,0.39 68.346,0.494 C68.0686667,0.667333333 67.93,0.979333333 67.93,1.43 L67.93,3.432 C70.9633333,3.432 73.4073333,3.354 75.262,3.198 L75.262,5.564 C73.7366667,5.408 71.2926667,5.33 67.93,5.33 L67.93,8.97 C72.1073333,8.95266667 75.34,8.87466667 77.628,8.736 L77.628,11.102 C75.34,10.946 72.142,10.868 68.034,10.868 L68.034,14.248 Z" id="路径"></path>
                    <path d="M100.686,4.732 C102.038,4.732 103.346667,4.66266667 104.612,4.524 L104.612,6.656 C103.346667,6.51733333 102.038,6.448 100.686,6.448 L100.686,10.634 C102.367333,10.634 103.866667,10.5646667 105.184,10.426 L105.184,12.558 C103.866667,12.4193333 102.367333,12.35 100.686,12.35 L100.686,15.236 C100.686,17.1253333 100.746667,18.6853333 100.868,19.916 L98.528,19.916 C98.6493333,18.3733333 98.71,16.8133333 98.71,15.236 L98.71,12.35 L94.966,12.35 C94.8273333,13.7886667 94.5456667,15.0453333 94.121,16.12 C93.6963333,17.1946667 92.964,18.486 91.924,19.994 C91.0226667,19.318 90.0953333,18.9453333 89.142,18.876 C91.1526667,17.7666667 92.4353333,15.5913333 92.99,12.35 C91.4473333,12.3846667 90.104,12.454 88.96,12.558 L88.96,10.426 C90.1906667,10.5646667 91.6033333,10.634 93.198,10.634 C93.2673333,9.94066667 93.3106667,8.54533333 93.328,6.448 C92.028,6.448 90.78,6.51733333 89.584,6.656 L89.584,4.524 C90.78,4.66266667 92.0193333,4.732 93.302,4.732 C93.2673333,3.15466667 93.1633333,1.638 92.99,0.182 C93.666,0.303333333 94.4806667,0.364 95.434,0.364 C95.6593333,0.364 95.772,0.403 95.772,0.481 C95.772,0.559 95.6853333,0.702 95.512,0.91 C95.2866667,1.15266667 95.1913333,2.42666667 95.226,4.732 L98.71,4.732 C98.71,2.68666667 98.6406667,1.17 98.502,0.182 C98.7966667,0.251333333 99.6113333,0.286 100.946,0.286 C101.171333,0.286 101.284,0.342333333 101.284,0.455 C101.284,0.567666667 101.223333,0.684666667 101.102,0.806 C100.980667,0.927333333 100.881,1.20466667 100.803,1.638 C100.725,2.07133333 100.686,2.47866667 100.686,2.86 L100.686,4.732 Z M98.71,6.448 L95.252,6.448 C95.252,8.02533333 95.2086667,9.42066667 95.122,10.634 L98.71,10.634 L98.71,6.448 Z M87.92,5.382 L85.58,6.396 C85.1813333,4.76666667 84.5053333,3.28466667 83.552,1.95 L85.84,1.066 C86.5506667,2.45266667 87.244,3.89133333 87.92,5.382 Z M87.348,19.162 C87.7986667,19.3353333 88.2926667,19.578 88.83,19.89 C90.338,20.722 92.8686667,21.138 96.422,21.138 C99.178,21.138 102.246,20.8693333 105.626,20.332 C105.140667,21.268 104.898,22.152 104.898,22.984 C102.194,23.14 99.789,23.218 97.683,23.218 C95.577,23.218 93.7396667,23.0836667 92.171,22.815 C90.6023333,22.5463333 89.1506667,22.0653333 87.816,21.372 C87.1746667,21.0426667 86.6893333,20.878 86.36,20.878 C86.0306667,20.878 85.684,21.0556667 85.32,21.411 C84.956,21.7663333 84.4793333,22.3426667 83.89,23.14 C83.3526667,22.464 82.772,21.9006667 82.148,21.45 C83.5693333,20.1153333 84.592,19.3353333 85.216,19.11 L85.216,10.816 C83.812,10.816 82.9626667,10.8506667 82.668,10.92 L82.668,8.684 C83.3266667,8.77066667 84.1023333,8.814 84.995,8.814 C85.8876667,8.814 86.7326667,8.77066667 87.53,8.684 C87.4086667,9.49866667 87.348,10.5126667 87.348,11.726 L87.348,19.162 Z" id="形状"></path>
                    <path d="M115.268,7.696 C114.557333,9.06533333 113.812,10.3566667 113.032,11.57 C112.252,11.154 111.437333,10.894 110.588,10.79 C112.841333,8.45 114.288667,5.33866667 114.93,1.456 C115.883333,1.94133333 116.784667,2.262 117.634,2.418 C117.963333,2.47 118.128,2.548 118.128,2.652 C118.128,2.756 118.037,2.85133333 117.855,2.938 C117.673,3.02466667 117.491,3.23266667 117.309,3.562 C117.127,3.89133333 116.776,4.602 116.256,5.694 L121.534,5.694 L121.534,3.38 C121.534,2.08 121.482,1.05733333 121.378,0.312 C122.314,0.416 123.25,0.468 124.186,0.468 C124.446,0.468 124.576,0.515666667 124.576,0.611 C124.576,0.706333333 124.489333,0.806 124.316,0.91 C124.142667,1.014 124.025667,1.12233333 123.965,1.235 C123.904333,1.34766667 123.874,1.49933333 123.874,1.69 L123.874,5.668 C127.132667,5.65066667 129.767333,5.59 131.778,5.486 L131.778,7.878 C129.611333,7.75666667 126.976667,7.696 123.874,7.696 L123.874,12.48 C126.387333,12.4626667 128.432667,12.376 130.01,12.22 L130.01,14.69 C128.519333,14.5166667 126.474,14.4213333 123.874,14.404 L123.874,19.968 C127.427333,19.9506667 130.348,19.864 132.636,19.708 L132.636,22.308 C130.244,22.1173333 126.708,22.022 122.028,22.022 C117.348,22.022 113.682,22.126 111.03,22.334 L111.03,19.734 C113.214,19.89 116.715333,19.968 121.534,19.968 L121.534,14.404 C118.674,14.4213333 116.464,14.5166667 114.904,14.69 L114.904,12.22 C116.568,12.376 118.778,12.4626667 121.534,12.48 L121.534,7.696 L115.268,7.696 Z" id="路径"></path>
                    <path d="M150.52,4.238 C148.370667,4.51533333 146.793333,4.732 145.788,4.888 C145.597333,4.12533333 145.276667,3.46666667 144.826,2.912 C146.004667,2.964 147.894,2.79066667 150.494,2.392 C153.094,1.99333333 155.33,1.482 157.202,0.858 C157.618,1.75933333 158.034,2.43533333 158.45,2.886 C158.623333,3.07666667 158.71,3.21966667 158.71,3.315 C158.71,3.41033333 158.645,3.445 158.515,3.419 C158.385,3.393 158.233333,3.38 158.06,3.38 C157.401333,3.38 155.607333,3.57066667 152.678,3.952 L152.678,7.904 C155.919333,7.904 158.554,7.826 160.582,7.67 L160.582,9.906 C158.814,9.76733333 156.179333,9.698 152.678,9.698 L152.678,13.182 C155.364667,13.1646667 157.167333,13.0953333 158.086,12.974 C157.982,13.702 157.93,14.5426667 157.93,15.496 L157.93,20.93 C157.93,21.7446667 157.999333,22.698 158.138,23.79 L155.824,23.79 L155.824,21.658 L147.842,21.658 L147.842,23.816 L145.528,23.816 C145.666667,22.8106667 145.736,21.8486667 145.736,20.93 L145.736,15.496 C145.736,14.508 145.675333,13.6673333 145.554,12.974 C146.611333,13.0953333 148.266667,13.1646667 150.52,13.182 L150.52,9.698 C147.556,9.71533333 145.302667,9.78466667 143.76,9.906 L143.76,7.67 C145.684,7.80866667 147.937333,7.88666667 150.52,7.904 L150.52,4.238 Z M155.824,19.812 L155.824,15.054 L147.842,15.054 L147.842,19.812 L155.824,19.812 Z M144.124,3.744 L142.642,5.798 C141.324667,4.51533333 139.955333,3.51 138.534,2.782 L139.834,0.988 C141.584667,2.06266667 143.014667,2.98133333 144.124,3.744 Z M142.772,9.906 L141.602,11.96 C140.163333,10.972 138.733333,10.218 137.312,9.698 L138.482,7.8 C140.180667,8.54533333 141.610667,9.24733333 142.772,9.906 Z M142.668,14.716 C142.304,15.6346667 141.883667,17.1036667 141.407,19.123 C140.930333,21.1423333 140.631333,22.802 140.51,24.102 C139.591333,23.374 138.707333,22.7673333 137.858,22.282 C138.43,21.0686667 138.963,19.6083333 139.457,17.901 C139.951,16.1936667 140.284667,14.69 140.458,13.39 C141.012667,14.066 141.749333,14.508 142.668,14.716 Z" id="形状"></path>
                    <path d="M171.108,19.682 C171.108,20.8606667 170.869667,21.7923333 170.393,22.477 C169.916333,23.1616667 169.253333,23.5733333 168.404,23.712 L168.404,22.516 C169.322667,22.412 169.782,21.5366667 169.782,19.89 L168.404,19.89 L168.404,17.134 L171.108,17.134 L171.108,19.682 Z" id="路径"></path>
                    <path d="M197.468,7.696 C196.757333,9.06533333 196.012,10.3566667 195.232,11.57 C194.452,11.154 193.637333,10.894 192.788,10.79 C195.041333,8.45 196.488667,5.33866667 197.13,1.456 C198.083333,1.94133333 198.984667,2.262 199.834,2.418 C200.163333,2.47 200.328,2.548 200.328,2.652 C200.328,2.756 200.237,2.85133333 200.055,2.938 C199.873,3.02466667 199.691,3.23266667 199.509,3.562 C199.327,3.89133333 198.976,4.602 198.456,5.694 L203.734,5.694 L203.734,3.38 C203.734,2.08 203.682,1.05733333 203.578,0.312 C204.514,0.416 205.45,0.468 206.386,0.468 C206.646,0.468 206.776,0.515666667 206.776,0.611 C206.776,0.706333333 206.689333,0.806 206.516,0.91 C206.342667,1.014 206.225667,1.12233333 206.165,1.235 C206.104333,1.34766667 206.074,1.49933333 206.074,1.69 L206.074,5.668 C209.332667,5.65066667 211.967333,5.59 213.978,5.486 L213.978,7.878 C211.811333,7.75666667 209.176667,7.696 206.074,7.696 L206.074,12.48 C208.587333,12.4626667 210.632667,12.376 212.21,12.22 L212.21,14.69 C210.719333,14.5166667 208.674,14.4213333 206.074,14.404 L206.074,19.968 C209.627333,19.9506667 212.548,19.864 214.836,19.708 L214.836,22.308 C212.444,22.1173333 208.908,22.022 204.228,22.022 C199.548,22.022 195.882,22.126 193.23,22.334 L193.23,19.734 C195.414,19.89 198.915333,19.968 203.734,19.968 L203.734,14.404 C200.874,14.4213333 198.664,14.5166667 197.104,14.69 L197.104,12.22 C198.768,12.376 200.978,12.4626667 203.734,12.48 L203.734,7.696 L197.468,7.696 Z" id="路径"></path>
                    <path d="M232.72,4.238 C230.570667,4.51533333 228.993333,4.732 227.988,4.888 C227.797333,4.12533333 227.476667,3.46666667 227.026,2.912 C228.204667,2.964 230.094,2.79066667 232.694,2.392 C235.294,1.99333333 237.53,1.482 239.402,0.858 C239.818,1.75933333 240.234,2.43533333 240.65,2.886 C240.823333,3.07666667 240.91,3.21966667 240.91,3.315 C240.91,3.41033333 240.845,3.445 240.715,3.419 C240.585,3.393 240.433333,3.38 240.26,3.38 C239.601333,3.38 237.807333,3.57066667 234.878,3.952 L234.878,7.904 C238.119333,7.904 240.754,7.826 242.782,7.67 L242.782,9.906 C241.014,9.76733333 238.379333,9.698 234.878,9.698 L234.878,13.182 C237.564667,13.1646667 239.367333,13.0953333 240.286,12.974 C240.182,13.702 240.13,14.5426667 240.13,15.496 L240.13,20.93 C240.13,21.7446667 240.199333,22.698 240.338,23.79 L238.024,23.79 L238.024,21.658 L230.042,21.658 L230.042,23.816 L227.728,23.816 C227.866667,22.8106667 227.936,21.8486667 227.936,20.93 L227.936,15.496 C227.936,14.508 227.875333,13.6673333 227.754,12.974 C228.811333,13.0953333 230.466667,13.1646667 232.72,13.182 L232.72,9.698 C229.756,9.71533333 227.502667,9.78466667 225.96,9.906 L225.96,7.67 C227.884,7.80866667 230.137333,7.88666667 232.72,7.904 L232.72,4.238 Z M238.024,19.812 L238.024,15.054 L230.042,15.054 L230.042,19.812 L238.024,19.812 Z M226.324,3.744 L224.842,5.798 C223.524667,4.51533333 222.155333,3.51 220.734,2.782 L222.034,0.988 C223.784667,2.06266667 225.214667,2.98133333 226.324,3.744 Z M224.972,9.906 L223.802,11.96 C222.363333,10.972 220.933333,10.218 219.512,9.698 L220.682,7.8 C222.380667,8.54533333 223.810667,9.24733333 224.972,9.906 Z M224.868,14.716 C224.504,15.6346667 224.083667,17.1036667 223.607,19.123 C223.130333,21.1423333 222.831333,22.802 222.71,24.102 C221.791333,23.374 220.907333,22.7673333 220.058,22.282 C220.63,21.0686667 221.163,19.6083333 221.657,17.901 C222.151,16.1936667 222.484667,14.69 222.658,13.39 C223.212667,14.066 223.949333,14.508 224.868,14.716 Z" id="形状"></path>
                    <path d="M265.164,5.434 C267.244,5.39933333 268.656667,5.33 269.402,5.226 C269.280667,5.954 269.22,6.77733333 269.22,7.696 L269.22,11.804 C269.22,12.8613333 269.280667,13.884 269.402,14.872 C268.552667,14.6813333 267.14,14.5773333 265.164,14.56 L265.164,20.202 L267.608,19.76 C267.278667,18.5986667 267.001333,17.6886667 266.776,17.03 L268.362,16.51 C269.038,18.07 269.696667,20.046 270.338,22.438 L268.388,23.166 C268.284,22.5246667 268.154,21.8833333 267.998,21.242 L262.954,22.36 C261.567333,22.6546667 260.458,23.0273333 259.626,23.478 C259.487333,22.646 259.262,21.7706667 258.95,20.852 C259.816667,20.9213333 261.316,20.8086667 263.448,20.514 L263.448,14.56 L261.446,14.56 L261.446,16.224 L259.496,16.224 C259.617333,15.3053333 259.678,14.4126667 259.678,13.546 L259.678,7.696 C259.678,6.62133333 259.626,5.798 259.522,5.226 C260.440667,5.33 261.749333,5.39933333 263.448,5.434 C263.448,2.40066667 263.396,0.754 263.292,0.494 C264.158667,0.684666667 264.921333,0.78 265.58,0.78 C265.857333,0.78 265.996,0.866666667 265.996,1.04 C265.996,1.16133333 265.918,1.25233333 265.762,1.313 C265.606,1.37366667 265.467333,1.56 265.346,1.872 C265.224667,2.184 265.164,2.50466667 265.164,2.834 L265.164,5.434 Z M263.448,12.818 L263.448,7.124 L261.446,7.124 L261.446,12.818 L263.448,12.818 Z M265.164,7.124 L265.164,12.818 L267.296,12.818 L267.296,7.124 L265.164,7.124 Z M258.638,3.822 C257.355333,3.718 255.578667,3.666 253.308,3.666 C251.037333,3.666 249.269333,3.744 248.004,3.9 L248.004,1.638 C249.234667,1.81133333 250.959333,1.898 253.178,1.898 C255.396667,1.898 257.216667,1.81133333 258.638,1.638 L258.638,3.822 Z M248.94,5.226 C250.136,5.382 251.579,5.46 253.269,5.46 C254.959,5.46 256.393333,5.382 257.572,5.226 C257.468,5.93666667 257.416,6.80766667 257.416,7.839 C257.416,8.87033333 257.468,9.87133333 257.572,10.842 C256.601333,10.686 255.141,10.608 253.191,10.608 C251.241,10.608 249.824,10.6773333 248.94,10.816 C249.061333,10.1053333 249.122,9.178 249.122,8.034 C249.122,6.89 249.061333,5.954 248.94,5.226 Z M250.89,6.838 L250.89,9.022 L255.7,9.022 L255.7,6.838 L250.89,6.838 Z M248.004,14.144 C248.004,13.2253333 247.934667,12.506 247.796,11.986 C249.2,12.142 250.955,12.22 253.061,12.22 C255.167,12.22 256.948,12.1333333 258.404,11.96 C258.282667,12.4973333 258.222,13.2166667 258.222,14.118 L258.222,20.8 C258.222,21.5626667 257.966333,22.1346667 257.455,22.516 C256.943667,22.8973333 256.168,23.1313333 255.128,23.218 C255.076,22.4206667 254.911333,21.762 254.634,21.242 C255.015333,21.2766667 255.357667,21.294 255.661,21.294 C255.964333,21.294 256.168,21.229 256.272,21.099 C256.376,20.969 256.428,20.722 256.428,20.358 L256.428,13.754 L249.72,13.754 L249.72,23.478 L247.77,23.478 C247.926,22.4726667 248.004,21.476 248.004,20.488 L248.004,14.144 Z M253.126,17.446 C253.455333,16.5446667 253.698,15.496 253.854,14.3 C254.53,14.56 255.128,14.7246667 255.648,14.794 C255.734667,14.8113333 255.778,14.846 255.778,14.898 C255.778,14.95 255.695667,15.0323333 255.531,15.145 C255.366333,15.2576667 254.980667,16.016 254.374,17.42 C254.807333,17.4026667 255.232,17.3593333 255.648,17.29 L255.648,19.032 C255.024,18.928 254.322,18.8673333 253.542,18.85 L253.542,20.852 C253.542,21.3026667 253.559333,21.71 253.594,22.074 L252.06,22.074 C252.112,21.7273333 252.138,21.32 252.138,20.852 L252.138,18.85 C251.375333,18.8673333 250.820667,18.9193333 250.474,19.006 L250.474,17.29 C251.167333,17.4113333 252.051333,17.4633333 253.126,17.446 Z M251.956,14.69 C252.285333,15.5913333 252.510667,16.1893333 252.632,16.484 L251.228,16.9 C251.072,16.2413333 250.872667,15.6 250.63,14.976 L251.956,14.69 Z" id="形状"></path>
                    <path d="M284.53,5.616 C283.386,4.17733333 282.155333,3.094 280.838,2.366 L282.632,0.598 C284.4,2.01933333 285.7,3.34966667 286.532,4.589 C287.364,5.82833333 288.109333,7.47066667 288.768,9.516 C289.825333,12.8093333 290.973667,15.1493333 292.213,16.536 C293.452333,17.9226667 295.198667,19.1186667 297.452,20.124 C296.550667,20.852 295.84,21.7186667 295.32,22.724 C293.205333,21.2853333 291.589,19.786 290.471,18.226 C289.353,16.666 288.291333,14.2133333 287.286,10.868 C286.974,9.84533333 286.558,8.84866667 286.038,7.878 C285.154,11.4313333 283.871333,14.43 282.19,16.874 C280.508667,19.318 278.706,21.2593333 276.782,22.698 C276.123333,21.9353333 275.360667,21.3806667 274.494,21.034 C277.319333,19.318 279.572667,17.0083333 281.254,14.105 C282.935333,11.2016667 284.027333,8.372 284.53,5.616 Z" id="路径"></path>
                    <path d="M312.164,11.726 L310.63,11.856 L310.63,9.62 C311.514,9.70666667 313.342667,9.776 316.116,9.828 L316.116,5.954 C313.498667,5.98866667 311.592,6.058 310.396,6.162 L310.396,3.848 C311.956,3.952 313.862667,4.02133333 316.116,4.056 C316.081333,2.444 315.994667,1.23066667 315.856,0.416 C316.705333,0.554666667 317.580667,0.624 318.482,0.624 C318.776667,0.624 318.924,0.667333333 318.924,0.754 C318.924,0.840666667 318.82,0.944666667 318.612,1.066 C318.404,1.18733333 318.3,1.49066667 318.3,1.976 L318.3,4.056 C320.709333,4.056 322.694,3.98666667 324.254,3.848 L324.254,6.162 C322.936667,6.02333333 320.952,5.954 318.3,5.954 L318.3,9.828 C319.686667,9.81066667 321.229333,9.71533333 322.928,9.542 C321.922667,13.2513333 320.362667,16.25 318.248,18.538 C320.12,19.8033333 322.425333,20.644 325.164,21.06 C324.574667,21.9093333 324.124,22.828 323.812,23.816 C321.385333,23.1746667 319.028,21.9093333 316.74,20.02 C315.024,21.4066667 313.039333,22.7326667 310.786,23.998 C310.352667,23.166 309.685333,22.5506667 308.784,22.152 C311.436,21.3893333 313.585333,20.1846667 315.232,18.538 C313.949333,16.8913333 312.926667,14.6206667 312.164,11.726 Z M314.322,11.674 C314.755333,13.6153333 315.57,15.4266667 316.766,17.108 C318.620667,14.9413333 319.686667,13.13 319.964,11.674 L314.322,11.674 Z M305.196,12.766 L305.196,7.722 C303.653333,7.73933333 302.457333,7.826 301.608,7.982 L301.608,5.616 C302.388,5.75466667 303.584,5.824 305.196,5.824 C305.196,3.016 305.109333,1.222 304.936,0.442 C305.664,0.546 306.305333,0.598 306.86,0.598 L307.614,0.572 C307.960667,0.572 308.134,0.641333333 308.134,0.78 C308.134,0.918666667 307.995333,1.09633333 307.718,1.313 C307.440667,1.52966667 307.302,1.846 307.302,2.262 L307.302,5.798 C308.220667,5.78066667 308.974667,5.72 309.564,5.616 L309.564,7.956 C308.836,7.83466667 308.082,7.76533333 307.302,7.748 L307.302,12.142 C308.463333,11.7606667 309.356,11.4573333 309.98,11.232 C309.962667,11.4573333 309.954,11.7476667 309.954,12.103 C309.954,12.4583333 310.032,12.8613333 310.188,13.312 C309.2,13.5546667 308.238,13.8233333 307.302,14.118 L307.302,21.268 C307.302,21.8226667 307.215333,22.2343333 307.042,22.503 C306.868667,22.7716667 306.500333,22.9926667 305.937,23.166 C305.373667,23.3393333 304.416,23.5473333 303.064,23.79 C302.821333,22.8366667 302.396667,21.9266667 301.79,21.06 C302.379333,21.1293333 302.890667,21.164 303.324,21.164 C304.572,21.164 305.196,20.8866667 305.196,20.332 L305.196,14.872 C304.069333,15.3226667 302.986,15.808 301.946,16.328 C301.807333,15.2533333 301.625333,14.352 301.4,13.624 C302.613333,13.3813333 303.878667,13.0953333 305.196,12.766 Z" id="形状"></path>
                    <path d="M339.46,8.84 L339.408,8.84 C338.385333,11.648 337.267333,13.9793333 336.054,15.834 C334.840667,17.6886667 333.22,19.4826667 331.192,21.216 C330.602667,20.6093333 329.84,20.0286667 328.904,19.474 C332.492,17.3593333 335.404,13.8146667 337.64,8.84 C335.074667,8.84 332.492,8.92666667 329.892,9.1 L329.892,6.708 C332.058667,6.84666667 335.248,6.93333333 339.46,6.968 C339.46,3.44933333 339.347333,1.196 339.122,0.208 C339.798,0.294666667 340.439333,0.338 341.046,0.338 L342.19,0.286 C342.502,0.286 342.658,0.346666667 342.658,0.468 C342.658,0.589333333 342.562667,0.710666667 342.372,0.832 C342.181333,0.953333333 342.021,1.144 341.891,1.404 C341.761,1.664 341.696,1.90666667 341.696,2.132 L341.696,6.968 C345.752,6.95066667 348.941333,6.864 351.264,6.708 L351.264,9.1 C348.924,8.96133333 346.306667,8.87466667 343.412,8.84 C344.486667,11.7346667 345.7,13.858 347.052,15.21 C348.404,16.562 350.198,17.4633333 352.434,17.914 C351.428667,18.902 350.718,19.8293333 350.302,20.696 C347.944667,19.3613333 346.150667,17.836 344.92,16.12 C343.689333,14.404 342.692667,11.9773333 341.93,8.84 L341.696,8.84 L341.696,19.448 C341.696,21.2506667 341.765333,22.6806667 341.904,23.738 L339.2,23.738 C339.373333,22.386 339.46,20.956 339.46,19.448 L339.46,8.84 Z M349.028,4.134 L346.974,5.59 C346.436667,4.51533333 345.656667,3.51 344.634,2.574 L346.506,1.222 C347.286,2.054 348.126667,3.02466667 349.028,4.134 Z" id="形状"></path>
                </g>
                <polygon id="矩形" fill="#6F8397" points="107 18 137 18 110 122 80 122"></polygon>
                <path d="M44,18 L59.7795742,18 C65.8547065,18 70.7795742,22.9248678 70.7795742,29 C70.7795742,29.9326157 70.6609709,30.8614455 70.4266184,31.7641365 L47,122 L47,122 L17,122 L44,18 Z" id="矩形" fill="#6F8397"></path>
                <path d="M37.8046609,41.864 L64.5,42.5 L64.4996609,54.591 L63.9942279,56.5442615 C61.9782248,54.9039003 58.6402346,54.0567314 53.9802571,54.0027548 L53.5,54 C48.0375,54 42.9976504,54.7898227 34.2076609,55.7214781 L37.8046609,41.864 Z" id="形状结合" fill="#445665"></path>
                <path d="M23,49 C10.2974508,49 1.55561363e-15,38.7025492 0,26 L0,18 L59.7795742,18 C65.8547065,18 70.7795742,22.9248678 70.7795742,29 C70.7795742,29.9326157 70.6609709,30.8614455 70.4266184,31.7641365 L63.9232176,56.8190722 C63.35614,52.4922766 59.7156888,49.1326988 55.2653623,49.0038371 L55,49 L23,49 Z" id="形状结合" fill="#FF3300"></path>
                <rect id="矩形" fill="#6F8397" x="47" y="59" width="60" height="30"></rect>
                <path d="M169,80 L153,80 L153,0 L169,0 L169,22 L190,22 C200.49341,22 209,30.5065898 209,41 L209,80 L193,80 L193,43 C193,38.1181973 189.113186,34.1442086 184.265362,34.0038371 L184,34 L169,34 L169,80 Z" id="形状结合" fill="#445665"></path>
                <path d="M237,80 C227.058875,80 219,71.9411255 219,62 C219,52.0588745 227.058875,44 237,44 L262.5,44 L262.5,43 C262.5,38.1181973 258.613186,34.1442086 253.765362,34.0038371 L253.5,34 L224,34 L224,22 L259.5,22 C269.99341,22 278.5,30.5065898 278.5,41 L278.5,80 L237,80 Z M262.5,57 L241,57 C238.238576,57 236,59.2385763 236,62 C236,64.6887547 238.122307,66.8818181 240.78311,66.9953805 L241,67 L262.5,67 L262.5,57 Z" id="形状结合" fill="#445665"></path>
                <path d="M325,21 C339.359403,21 351,32.6405965 351,47 L351,53 C351,67.3594035 339.359403,79 325,79 L309,79 L309,101 L293,101 L293,21 L325,21 Z M309,66 L320,66 C328.179407,66 334.82973,59.4532136 334.996782,51.3138282 L335,51 L335,49 C335,40.8205929 328.453214,34.1702698 320.313828,34.0032178 L320,34 L309,34 L309,66 Z" id="形状结合" fill="#445665"></path>
                <path d="M394,21 C408.359403,21 420,32.6405965 420,47 L420,53 C420,67.3594035 408.359403,79 394,79 L378,79 L378,101 L362,101 L362,21 L394,21 Z M378,66 L389,66 C397.179407,66 403.82973,59.4532136 403.996782,51.3138282 L404,51 L404,49 C404,40.8205929 397.453214,34.1702698 389.313828,34.0032178 L389,34 L378,34 L378,66 Z" id="形状结合" fill="#445665"></path>
                <path d="M448,21 L448,58 C448,62.8818027 451.886814,66.8557914 456.734638,66.9961629 L457,67 L470,67 L470,21 L485,21 L485,80.5 C485,90.9934102 476.49341,99.5 466,99.5 L466,99.5 L433,99.5 L433,87.5 L461,87.5 L461.265362,87.4961629 C465.946286,87.3606241 469.731231,83.6508912 469.986298,79.0008636 L452,79 C441.50659,79 433,70.4934102 433,60 L433,21 L448,21 Z" id="形状结合" fill="#445665"></path>
                <path d="M536,45 L536.000701,45.0289643 C544.92375,45.5469291 552,52.9470912 552,62 C552,71.3888407 544.388841,79 535,79 L535,79 L497,79 L497,67 L531,67 L531.21689,66.9953805 C533.877693,66.8818181 536,64.6887547 536,62 C536,59.2385763 533.761424,57 531,57 L531,57 L514,57 C504.058875,57 496,48.9411255 496,39 C496,29.0588745 504.058875,21 514,21 L549,21 L549,34 L517.5,34 C514.462434,34 512,36.4624339 512,39.5 C512,42.4634791 514.34378,44.8795391 517.278793,44.9956328 L517.5,45 L536,45 Z" id="形状结合" fill="#445665"></path>
            </g>
        </g>
    </g>
</svg>